***************************************************************************

                        XxX Releasers Group

***************************************************************************

screens;
  
http://adulthub.eu/?v=dmlollyink.jpeg
 
http://adulthub.eu/?v=dmlollyiy.jpeg
 
http://adulthub.eu/?v=dmlollszs.jpeg

Format                                   : MPEG-4
Format profile                           : Base Media
Codec ID                                 : isom
File size                                : 408 MiB
Duration                                 : 47mn 57s
Overall bit rate                         : 1 191 Kbps
Writing application                      : Lavf54.37.100

Video
ID                                       : 1
Format                                   : AVC
Format/Info                              : Advanced Video Codec
Format profile                           : High@L3.1
Format settings, CABAC                   : Yes
Format settings, ReFrames                : 5 frames
Codec ID                                 : avc1
Codec ID/Info                            : Advanced Video Coding
Duration                                 : 47mn 56s
Bit rate                                 : 1 000 Kbps
Width                                    : 854 pixels
Height                                   : 480 pixels
Display aspect ratio                     : 16:9
Frame rate mode                          : Constant
Frame rate                               : 29.970 fps
Color space                              : YUV
Chroma subsampling                       : 4:2:0
Bit depth                                : 8 bits
Scan type                                : Progressive
Bits/(Pixel*Frame)                       : 0.081
Stream size                              : 343 MiB (84%)
Writing library                          : x264 core
Tagged date                              : UTC 2012-11-28 10:07:09

Audio
ID                                       : 2
Format                                   : AAC
Format/Info                              : Advanced Audio Codec
Format profile                           : LC
Codec ID                                 : 40
Duration                                 : 47mn 57s
Duration_LastFrame                       : 33ms
Bit rate mode                            : Constant
Bit rate                                 : 128 Kbps
Channel(s)                               : 2 channels
Channel positions                        : Front: L R
Sampling rate                            : 48.0 KHz
Compression mode                         : Lossy
Stream size                              : 43.9 MiB (11%)
Tagged date                              : UTC 2012-11-28 10:07:09